<?xml version="1.0" standalone="no"?>
<!DOCTYPE svg PUBLIC "-//W3C//DTD SVG 1.1//EN"
  "http://www.w3.org/Graphics/SVG/1.1/DTD/svg11.dtd">
<svg xmlns="http://www.w3.org/2000/svg" version="1.1"
     width="913px" height="1204px" viewBox="-15 -569 913 1224">
  <defs>
    <style type="text/css"><![CDATA[
      .markmap-node {
        cursor: pointer;
      }

      .markmap-node-circle {
        fill: #fff;
        stroke-width: 1.5px;
      }

      .markmap-node-text {
        fill:  #000;
        font: 10px sans-serif;
      }

      .markmap-link {
        fill: none;
      }
    ]]></style>
  </defs>
  <g><path class="markmap-link" stroke="#929292" stroke-width="1" d="M444.7880859375,540C474.7880859375,540 474.7880859375,477.5 504.7880859375,477.5"></path><path class="markmap-link" stroke="#929292" stroke-width="1" d="M444.7880859375,540C474.7880859375,540 474.7880859375,502.5 504.7880859375,502.5"></path><path class="markmap-link" stroke="#929292" stroke-width="1" d="M444.7880859375,540C474.7880859375,540 474.7880859375,527.5 504.7880859375,527.5"></path><path class="markmap-link" stroke="#929292" stroke-width="1" d="M444.7880859375,540C474.7880859375,540 474.7880859375,552.5 504.7880859375,552.5"></path><path class="markmap-link" stroke="#929292" stroke-width="1" d="M444.7880859375,540C474.7880859375,540 474.7880859375,577.5 504.7880859375,577.5"></path><path class="markmap-link" stroke="#929292" stroke-width="1" d="M444.7880859375,540C474.7880859375,540 474.7880859375,602.5 504.7880859375,602.5"></path><path class="markmap-link" stroke="#929292" stroke-width="1" d="M658.7880859375,447.5C688.7880859375,447.5 688.7880859375,435 718.7880859375,435"></path><path class="markmap-link" stroke="#929292" stroke-width="1" d="M658.7880859375,447.5C688.7880859375,447.5 688.7880859375,460 718.7880859375,460"></path><path class="markmap-link" stroke="#929292" stroke-width="1" d="M434.7880859375,372.5C464.7880859375,372.5 464.7880859375,297.5 494.7880859375,297.5"></path><path class="markmap-link" stroke="#929292" stroke-width="1" d="M434.7880859375,372.5C464.7880859375,372.5 464.7880859375,322.5 494.7880859375,322.5"></path><path class="markmap-link" stroke="#929292" stroke-width="1" d="M434.7880859375,372.5C464.7880859375,372.5 464.7880859375,347.5 494.7880859375,347.5"></path><path class="markmap-link" stroke="#929292" stroke-width="1" d="M434.7880859375,372.5C464.7880859375,372.5 464.7880859375,372.5 494.7880859375,372.5"></path><path class="markmap-link" stroke="#929292" stroke-width="1" d="M434.7880859375,372.5C464.7880859375,372.5 464.7880859375,397.5 494.7880859375,397.5"></path><path class="markmap-link" stroke="#929292" stroke-width="1" d="M434.7880859375,372.5C464.7880859375,372.5 464.7880859375,422.5 494.7880859375,422.5"></path><path class="markmap-link" stroke="#929292" stroke-width="1" d="M434.7880859375,372.5C464.7880859375,372.5 464.7880859375,447.5 494.7880859375,447.5"></path><path class="markmap-link" stroke="#929292" stroke-width="1" d="M310.7880859375,468.75C340.7880859375,468.75 340.7880859375,297.5 370.7880859375,297.5"></path><path class="markmap-link" stroke="#929292" stroke-width="1" d="M310.7880859375,468.75C340.7880859375,468.75 340.7880859375,372.5 370.7880859375,372.5"></path><path class="markmap-link" stroke="#929292" stroke-width="1" d="M310.7880859375,468.75C340.7880859375,468.75 340.7880859375,540 370.7880859375,540"></path><path class="markmap-link" stroke="#929292" stroke-width="1" d="M310.7880859375,468.75C340.7880859375,468.75 340.7880859375,565 370.7880859375,565"></path><path class="markmap-link" stroke="#929292" stroke-width="1" d="M310.7880859375,468.75C340.7880859375,468.75 340.7880859375,590 370.7880859375,590"></path><path class="markmap-link" stroke="#929292" stroke-width="1" d="M310.7880859375,468.75C340.7880859375,468.75 340.7880859375,615 370.7880859375,615"></path><path class="markmap-link" stroke="#929292" stroke-width="1" d="M310.7880859375,468.75C340.7880859375,468.75 340.7880859375,640 370.7880859375,640"></path><path class="markmap-link" stroke="#929292" stroke-width="1" d="M310.7880859375,205C340.7880859375,205 340.7880859375,142.5 370.7880859375,142.5"></path><path class="markmap-link" stroke="#929292" stroke-width="1" d="M310.7880859375,205C340.7880859375,205 340.7880859375,167.5 370.7880859375,167.5"></path><path class="markmap-link" stroke="#929292" stroke-width="1" d="M310.7880859375,205C340.7880859375,205 340.7880859375,192.5 370.7880859375,192.5"></path><path class="markmap-link" stroke="#929292" stroke-width="1" d="M310.7880859375,205C340.7880859375,205 340.7880859375,217.5 370.7880859375,217.5"></path><path class="markmap-link" stroke="#929292" stroke-width="1" d="M310.7880859375,205C340.7880859375,205 340.7880859375,242.5 370.7880859375,242.5"></path><path class="markmap-link" stroke="#929292" stroke-width="1" d="M310.7880859375,205C340.7880859375,205 340.7880859375,267.5 370.7880859375,267.5"></path><path class="markmap-link" stroke="#929292" stroke-width="1" d="M434.7880859375,-12.5C464.7880859375,-12.5 464.7880859375,-37.5 494.7880859375,-37.5"></path><path class="markmap-link" stroke="#929292" stroke-width="1" d="M434.7880859375,-12.5C464.7880859375,-12.5 464.7880859375,-12.5 494.7880859375,-12.5"></path><path class="markmap-link" stroke="#929292" stroke-width="1" d="M434.7880859375,-12.5C464.7880859375,-12.5 464.7880859375,12.5 494.7880859375,12.5"></path><path class="markmap-link" stroke="#929292" stroke-width="1" d="M300.7880859375,10C330.7880859375,10 330.7880859375,-92.5 360.7880859375,-92.5"></path><path class="markmap-link" stroke="#929292" stroke-width="1" d="M300.7880859375,10C330.7880859375,10 330.7880859375,-67.5 360.7880859375,-67.5"></path><path class="markmap-link" stroke="#929292" stroke-width="1" d="M300.7880859375,10C330.7880859375,10 330.7880859375,-42.5 360.7880859375,-42.5"></path><path class="markmap-link" stroke="#929292" stroke-width="1" d="M300.7880859375,10C330.7880859375,10 330.7880859375,-12.5 360.7880859375,-12.5"></path><path class="markmap-link" stroke="#929292" stroke-width="1" d="M300.7880859375,10C330.7880859375,10 330.7880859375,12.5 360.7880859375,12.5"></path><path class="markmap-link" stroke="#929292" stroke-width="1" d="M300.7880859375,10C330.7880859375,10 330.7880859375,37.5 360.7880859375,37.5"></path><path class="markmap-link" stroke="#929292" stroke-width="1" d="M300.7880859375,10C330.7880859375,10 330.7880859375,62.5 360.7880859375,62.5"></path><path class="markmap-link" stroke="#929292" stroke-width="1" d="M300.7880859375,10C330.7880859375,10 330.7880859375,87.5 360.7880859375,87.5"></path><path class="markmap-link" stroke="#929292" stroke-width="1" d="M300.7880859375,10C330.7880859375,10 330.7880859375,112.5 360.7880859375,112.5"></path><path class="markmap-link" stroke="#929292" stroke-width="1" d="M573.7626953125,-101.25C603.7626953125,-101.25 603.7626953125,-113.75 633.7626953125,-113.75"></path><path class="markmap-link" stroke="#929292" stroke-width="1" d="M573.7626953125,-101.25C603.7626953125,-101.25 603.7626953125,-88.75 633.7626953125,-88.75"></path><path class="markmap-link" stroke="#929292" stroke-width="1" d="M573.7626953125,-168.75C603.7626953125,-168.75 603.7626953125,-193.75 633.7626953125,-193.75"></path><path class="markmap-link" stroke="#929292" stroke-width="1" d="M573.7626953125,-168.75C603.7626953125,-168.75 603.7626953125,-168.75 633.7626953125,-168.75"></path><path class="markmap-link" stroke="#929292" stroke-width="1" d="M573.7626953125,-168.75C603.7626953125,-168.75 603.7626953125,-143.75 633.7626953125,-143.75"></path><path class="markmap-link" stroke="#929292" stroke-width="1" d="M449.7626953125,-122.5C479.7626953125,-122.5 479.7626953125,-168.75 509.7626953125,-168.75"></path><path class="markmap-link" stroke="#929292" stroke-width="1" d="M449.7626953125,-122.5C479.7626953125,-122.5 479.7626953125,-101.25 509.7626953125,-101.25"></path><path class="markmap-link" stroke="#929292" stroke-width="1" d="M449.7626953125,-122.5C479.7626953125,-122.5 479.7626953125,-76.25 509.7626953125,-76.25"></path><path class="markmap-link" stroke="#929292" stroke-width="1" d="M614.314453125,-373.75C644.314453125,-373.75 644.314453125,-386.25 674.314453125,-386.25"></path><path class="markmap-link" stroke="#929292" stroke-width="1" d="M614.314453125,-373.75C644.314453125,-373.75 644.314453125,-361.25 674.314453125,-361.25"></path><path class="markmap-link" stroke="#929292" stroke-width="1" d="M330.7880859375,-286.25C360.7880859375,-286.25 360.7880859375,-373.75 390.7880859375,-373.75"></path><path class="markmap-link" stroke="#929292" stroke-width="1" d="M330.7880859375,-286.25C360.7880859375,-286.25 360.7880859375,-348.75 390.7880859375,-348.75"></path><path class="markmap-link" stroke="#929292" stroke-width="1" d="M330.7880859375,-286.25C360.7880859375,-286.25 360.7880859375,-323.75 390.7880859375,-323.75"></path><path class="markmap-link" stroke="#929292" stroke-width="1" d="M330.7880859375,-286.25C360.7880859375,-286.25 360.7880859375,-298.75 390.7880859375,-298.75"></path><path class="markmap-link" stroke="#929292" stroke-width="1" d="M330.7880859375,-286.25C360.7880859375,-286.25 360.7880859375,-273.75 390.7880859375,-273.75"></path><path class="markmap-link" stroke="#929292" stroke-width="1" d="M330.7880859375,-286.25C360.7880859375,-286.25 360.7880859375,-248.75 390.7880859375,-248.75"></path><path class="markmap-link" stroke="#929292" stroke-width="1" d="M330.7880859375,-286.25C360.7880859375,-286.25 360.7880859375,-223.75 390.7880859375,-223.75"></path><path class="markmap-link" stroke="#929292" stroke-width="1" d="M330.7880859375,-286.25C360.7880859375,-286.25 360.7880859375,-198.75 390.7880859375,-198.75"></path><path class="markmap-link" stroke="#929292" stroke-width="1" d="M424.7880859375,-428.75C454.7880859375,-428.75 454.7880859375,-453.75 484.7880859375,-453.75"></path><path class="markmap-link" stroke="#929292" stroke-width="1" d="M424.7880859375,-428.75C454.7880859375,-428.75 454.7880859375,-428.75 484.7880859375,-428.75"></path><path class="markmap-link" stroke="#929292" stroke-width="1" d="M424.7880859375,-428.75C454.7880859375,-428.75 454.7880859375,-403.75 484.7880859375,-403.75"></path><path class="markmap-link" stroke="#929292" stroke-width="1" d="M424.7880859375,-508.75C454.7880859375,-508.75 454.7880859375,-533.75 484.7880859375,-533.75"></path><path class="markmap-link" stroke="#929292" stroke-width="1" d="M424.7880859375,-508.75C454.7880859375,-508.75 454.7880859375,-508.75 484.7880859375,-508.75"></path><path class="markmap-link" stroke="#929292" stroke-width="1" d="M424.7880859375,-508.75C454.7880859375,-508.75 454.7880859375,-483.75 484.7880859375,-483.75"></path><path class="markmap-link" stroke="#929292" stroke-width="1" d="M320.7880859375,-468.75C350.7880859375,-468.75 350.7880859375,-508.75 380.7880859375,-508.75"></path><path class="markmap-link" stroke="#929292" stroke-width="1" d="M320.7880859375,-468.75C350.7880859375,-468.75 350.7880859375,-428.75 380.7880859375,-428.75"></path><path class="markmap-link" stroke="#929292" stroke-width="1" d="M186.7880859375,0C216.7880859375,0 216.7880859375,-468.75 246.7880859375,-468.75"></path><path class="markmap-link" stroke="#929292" stroke-width="1" d="M186.7880859375,0C216.7880859375,0 216.7880859375,-286.25 246.7880859375,-286.25"></path><path class="markmap-link" stroke="#929292" stroke-width="1" d="M186.7880859375,0C216.7880859375,0 216.7880859375,-122.5 246.7880859375,-122.5"></path><path class="markmap-link" stroke="#929292" stroke-width="1" d="M186.7880859375,0C216.7880859375,0 216.7880859375,10 246.7880859375,10"></path><path class="markmap-link" stroke="#929292" stroke-width="1" d="M186.7880859375,0C216.7880859375,0 216.7880859375,205 246.7880859375,205"></path><path class="markmap-link" stroke="#929292" stroke-width="1" d="M186.7880859375,0C216.7880859375,0 216.7880859375,468.75 246.7880859375,468.75"></path><path class="markmap-link" stroke="#929292" stroke-width="1" d="M0,0C30,0 30,0 60,0"></path><g class="markmap-node" transform="translate(370.7880859375,640)"><rect class="markmap-node-rect" y="-10" x="-1" width="54.3349609375" height="20" fill="#dfdfdf" rx="10" ry="10" stroke="#929292" stroke-width="1"></rect><circle class="markmap-node-circle" cx="52.3349609375" stroke="#929292" r="4.5" style="display: none;"></circle><text class="markmap-node-text" x="10" dy="3" text-anchor="start" style="fill-opacity: 1;">mixins</text></g><g class="markmap-node" transform="translate(370.7880859375,615)"><rect class="markmap-node-rect" y="-10" x="-1" width="46" height="20" fill="#dfdfdf" rx="10" ry="10" stroke="#929292" stroke-width="1"></rect><circle class="markmap-node-circle" cx="44" stroke="#929292" r="4.5" style="display: none;"></circle><text class="markmap-node-text" x="10" dy="3" text-anchor="start" style="fill-opacity: 1;">继承</text></g><g class="markmap-node" transform="translate(370.7880859375,590)"><rect class="markmap-node-rect" y="-10" x="-1" width="66" height="20" fill="#dfdfdf" rx="10" ry="10" stroke="#929292" stroke-width="1"></rect><circle class="markmap-node-circle" cx="64" stroke="#929292" r="4.5" style="display: none;"></circle><text class="markmap-node-text" x="10" dy="3" text-anchor="start" style="fill-opacity: 1;">隐式接口</text></g><g class="markmap-node" transform="translate(370.7880859375,565)"><rect class="markmap-node-rect" y="-10" x="-1" width="56" height="20" fill="#dfdfdf" rx="10" ry="10" stroke="#929292" stroke-width="1"></rect><circle class="markmap-node-circle" cx="54" stroke="#929292" r="4.5" style="display: none;"></circle><text class="markmap-node-text" x="10" dy="3" text-anchor="start" style="fill-opacity: 1;">抽象类</text></g><g class="markmap-node" transform="translate(504.7880859375,602.5)"><rect class="markmap-node-rect" y="-10" x="-1" width="66" height="20" fill="#dfdfdf" rx="10" ry="10" stroke="#929292" stroke-width="1"></rect><circle class="markmap-node-circle" cx="64" stroke="#929292" r="4.5" style="display: none;"></circle><text class="markmap-node-text" x="10" dy="3" text-anchor="start" style="fill-opacity: 1;">抽象函数</text></g><g class="markmap-node" transform="translate(504.7880859375,577.5)"><rect class="markmap-node-rect" y="-10" x="-1" width="130.4677734375" height="20" fill="#dfdfdf" rx="10" ry="10" stroke="#929292" stroke-width="1"></rect><circle class="markmap-node-circle" cx="128.4677734375" stroke="#929292" r="4.5" style="display: none;"></circle><text class="markmap-node-text" x="10" dy="3" text-anchor="start" style="fill-opacity: 1;">Setter函数和Getter函数</text></g><g class="markmap-node" transform="translate(504.7880859375,552.5)"><rect class="markmap-node-rect" y="-10" x="-1" width="66" height="20" fill="#dfdfdf" rx="10" ry="10" stroke="#929292" stroke-width="1"></rect><circle class="markmap-node-circle" cx="64" stroke="#929292" r="4.5" style="display: none;"></circle><text class="markmap-node-text" x="10" dy="3" text-anchor="start" style="fill-opacity: 1;">实例函数</text></g><g class="markmap-node" transform="translate(504.7880859375,527.5)"><rect class="markmap-node-rect" y="-10" x="-1" width="66" height="20" fill="#dfdfdf" rx="10" ry="10" stroke="#929292" stroke-width="1"></rect><circle class="markmap-node-circle" cx="64" stroke="#929292" r="4.5" style="display: none;"></circle><text class="markmap-node-text" x="10" dy="3" text-anchor="start" style="fill-opacity: 1;">静态函数</text></g><g class="markmap-node" transform="translate(504.7880859375,502.5)"><rect class="markmap-node-rect" y="-10" x="-1" width="66" height="20" fill="#dfdfdf" rx="10" ry="10" stroke="#929292" stroke-width="1"></rect><circle class="markmap-node-circle" cx="64" stroke="#929292" r="4.5" style="display: none;"></circle><text class="markmap-node-text" x="10" dy="3" text-anchor="start" style="fill-opacity: 1;">实例变量</text></g><g class="markmap-node" transform="translate(504.7880859375,477.5)"><rect class="markmap-node-rect" y="-10" x="-1" width="66" height="20" fill="#dfdfdf" rx="10" ry="10" stroke="#929292" stroke-width="1"></rect><circle class="markmap-node-circle" cx="64" stroke="#929292" r="4.5" style="display: none;"></circle><text class="markmap-node-text" x="10" dy="3" text-anchor="start" style="fill-opacity: 1;">静态变量</text></g><g class="markmap-node" transform="translate(370.7880859375,540)"><rect class="markmap-node-rect" y="-10" x="-1" width="76" height="20" fill="#dfdfdf" rx="10" ry="10" stroke="#929292" stroke-width="1"></rect><circle class="markmap-node-circle" cx="74" stroke="#929292" r="4.5"></circle><text class="markmap-node-text" x="10" dy="3" text-anchor="start" style="fill-opacity: 1;">变量和函数</text></g><g class="markmap-node" transform="translate(718.7880859375,460)"><rect class="markmap-node-rect" y="-10" x="-1" width="126" height="20" fill="#dfdfdf" rx="10" ry="10" stroke="#929292" stroke-width="1"></rect><circle class="markmap-node-circle" cx="124" stroke="#929292" r="4.5" style="display: none;"></circle><text class="markmap-node-text" x="10" dy="3" text-anchor="start" style="fill-opacity: 1;">显式调用父类构造函数</text></g><g class="markmap-node" transform="translate(718.7880859375,435)"><rect class="markmap-node-rect" y="-10" x="-1" width="166" height="20" fill="#dfdfdf" rx="10" ry="10" stroke="#929292" stroke-width="1"></rect><circle class="markmap-node-circle" cx="164" stroke="#929292" r="4.5" style="display: none;"></circle><text class="markmap-node-text" x="10" dy="3" text-anchor="start" style="fill-opacity: 1;">隐式调用父类的无参数构造函数</text></g><g class="markmap-node" transform="translate(494.7880859375,447.5)"><rect class="markmap-node-rect" y="-10" x="-1" width="166" height="20" fill="#dfdfdf" rx="10" ry="10" stroke="#929292" stroke-width="1"></rect><circle class="markmap-node-circle" cx="164" stroke="#929292" r="4.5"></circle><text class="markmap-node-text" x="10" dy="3" text-anchor="start" style="fill-opacity: 1;">子类构造函数调用父类构造函数</text></g><g class="markmap-node" transform="translate(494.7880859375,422.5)"><rect class="markmap-node-rect" y="-10" x="-1" width="96" height="20" fill="#dfdfdf" rx="10" ry="10" stroke="#929292" stroke-width="1"></rect><circle class="markmap-node-circle" cx="94" stroke="#929292" r="4.5" style="display: none;"></circle><text class="markmap-node-text" x="10" dy="3" text-anchor="start" style="fill-opacity: 1;">重定向构造函数</text></g><g class="markmap-node" transform="translate(494.7880859375,397.5)"><rect class="markmap-node-rect" y="-10" x="-1" width="76" height="20" fill="#dfdfdf" rx="10" ry="10" stroke="#929292" stroke-width="1"></rect><circle class="markmap-node-circle" cx="74" stroke="#929292" r="4.5" style="display: none;"></circle><text class="markmap-node-text" x="10" dy="3" text-anchor="start" style="fill-opacity: 1;">初始化列表</text></g><g class="markmap-node" transform="translate(494.7880859375,372.5)"><rect class="markmap-node-rect" y="-10" x="-1" width="106" height="20" fill="#dfdfdf" rx="10" ry="10" stroke="#929292" stroke-width="1"></rect><circle class="markmap-node-circle" cx="104" stroke="#929292" r="4.5" style="display: none;"></circle><text class="markmap-node-text" x="10" dy="3" text-anchor="start" style="fill-opacity: 1;">工厂方法构造函数</text></g><g class="markmap-node" transform="translate(494.7880859375,347.5)"><rect class="markmap-node-rect" y="-10" x="-1" width="86" height="20" fill="#dfdfdf" rx="10" ry="10" stroke="#929292" stroke-width="1"></rect><circle class="markmap-node-circle" cx="84" stroke="#929292" r="4.5" style="display: none;"></circle><text class="markmap-node-text" x="10" dy="3" text-anchor="start" style="fill-opacity: 1;">常量构造函数</text></g><g class="markmap-node" transform="translate(494.7880859375,322.5)"><rect class="markmap-node-rect" y="-10" x="-1" width="86" height="20" fill="#dfdfdf" rx="10" ry="10" stroke="#929292" stroke-width="1"></rect><circle class="markmap-node-circle" cx="84" stroke="#929292" r="4.5" style="display: none;"></circle><text class="markmap-node-text" x="10" dy="3" text-anchor="start" style="fill-opacity: 1;">命名构造函数</text></g><g class="markmap-node" transform="translate(494.7880859375,297.5)"><rect class="markmap-node-rect" y="-10" x="-1" width="86" height="20" fill="#dfdfdf" rx="10" ry="10" stroke="#929292" stroke-width="1"></rect><circle class="markmap-node-circle" cx="84" stroke="#929292" r="4.5" style="display: none;"></circle><text class="markmap-node-text" x="10" dy="3" text-anchor="start" style="fill-opacity: 1;">默认构造函数</text></g><g class="markmap-node" transform="translate(370.7880859375,372.5)"><rect class="markmap-node-rect" y="-10" x="-1" width="66" height="20" fill="#dfdfdf" rx="10" ry="10" stroke="#929292" stroke-width="1"></rect><circle class="markmap-node-circle" cx="64" stroke="#929292" r="4.5"></circle><text class="markmap-node-text" x="10" dy="3" text-anchor="start" style="fill-opacity: 1;">构造函数</text></g><g class="markmap-node" transform="translate(370.7880859375,297.5)"><rect class="markmap-node-rect" y="-10" x="-1" width="66" height="20" fill="#dfdfdf" rx="10" ry="10" stroke="#929292" stroke-width="1"></rect><circle class="markmap-node-circle" cx="64" stroke="#929292" r="4.5" style="display: none;"></circle><text class="markmap-node-text" x="10" dy="3" text-anchor="start" style="fill-opacity: 1;">类的定义</text></g><g class="markmap-node" transform="translate(246.7880859375,468.75)"><rect class="markmap-node-rect" y="-10" x="-1" width="66" height="20" fill="#dfdfdf" rx="10" ry="10" stroke="#929292" stroke-width="1"></rect><circle class="markmap-node-circle" cx="64" stroke="#929292" r="4.5"></circle><text class="markmap-node-text" x="10" dy="3" text-anchor="start" style="fill-opacity: 1;">类和对象</text></g><g class="markmap-node" transform="translate(370.7880859375,267.5)"><rect class="markmap-node-rect" y="-10" x="-1" width="46" height="20" fill="#dfdfdf" rx="10" ry="10" stroke="#929292" stroke-width="1"></rect><circle class="markmap-node-circle" cx="44" stroke="#929292" r="4.5" style="display: none;"></circle><text class="markmap-node-text" x="10" dy="3" text-anchor="start" style="fill-opacity: 1;">异常</text></g><g class="markmap-node" transform="translate(370.7880859375,242.5)"><rect class="markmap-node-rect" y="-10" x="-1" width="46" height="20" fill="#dfdfdf" rx="10" ry="10" stroke="#929292" stroke-width="1"></rect><circle class="markmap-node-circle" cx="44" stroke="#929292" r="4.5" style="display: none;"></circle><text class="markmap-node-text" x="10" dy="3" text-anchor="start" style="fill-opacity: 1;">断言</text></g><g class="markmap-node" transform="translate(370.7880859375,217.5)"><rect class="markmap-node-rect" y="-10" x="-1" width="73.783203125" height="20" fill="#dfdfdf" rx="10" ry="10" stroke="#929292" stroke-width="1"></rect><circle class="markmap-node-circle" cx="71.783203125" stroke="#929292" r="4.5" style="display: none;"></circle><text class="markmap-node-text" x="10" dy="3" text-anchor="start" style="fill-opacity: 1;">switch语句</text></g><g class="markmap-node" transform="translate(370.7880859375,192.5)"><rect class="markmap-node-rect" y="-10" x="-1" width="68.7880859375" height="20" fill="#dfdfdf" rx="10" ry="10" stroke="#929292" stroke-width="1"></rect><circle class="markmap-node-circle" cx="66.7880859375" stroke="#929292" r="4.5" style="display: none;"></circle><text class="markmap-node-text" x="10" dy="3" text-anchor="start" style="fill-opacity: 1;">while循环</text></g><g class="markmap-node" transform="translate(370.7880859375,167.5)"><rect class="markmap-node-rect" y="-10" x="-1" width="57.669921875" height="20" fill="#dfdfdf" rx="10" ry="10" stroke="#929292" stroke-width="1"></rect><circle class="markmap-node-circle" cx="55.669921875" stroke="#929292" r="4.5" style="display: none;"></circle><text class="markmap-node-text" x="10" dy="3" text-anchor="start" style="fill-opacity: 1;">for循环</text></g><g class="markmap-node" transform="translate(370.7880859375,142.5)"><rect class="markmap-node-rect" y="-10" x="-1" width="52.6748046875" height="20" fill="#dfdfdf" rx="10" ry="10" stroke="#929292" stroke-width="1"></rect><circle class="markmap-node-circle" cx="50.6748046875" stroke="#929292" r="4.5" style="display: none;"></circle><text class="markmap-node-text" x="10" dy="3" text-anchor="start" style="fill-opacity: 1;">if-else</text></g><g class="markmap-node" transform="translate(246.7880859375,205)"><rect class="markmap-node-rect" y="-10" x="-1" width="66" height="20" fill="#dfdfdf" rx="10" ry="10" stroke="#929292" stroke-width="1"></rect><circle class="markmap-node-circle" cx="64" stroke="#929292" r="4.5"></circle><text class="markmap-node-text" x="10" dy="3" text-anchor="start" style="fill-opacity: 1;">流程控制</text></g><g class="markmap-node" transform="translate(360.7880859375,112.5)"><rect class="markmap-node-rect" y="-10" x="-1" width="76" height="20" fill="#dfdfdf" rx="10" ry="10" stroke="#929292" stroke-width="1"></rect><circle class="markmap-node-circle" cx="74" stroke="#929292" r="4.5" style="display: none;"></circle><text class="markmap-node-text" x="10" dy="3" text-anchor="start" style="fill-opacity: 1;">其他操作符</text></g><g class="markmap-node" transform="translate(360.7880859375,87.5)"><rect class="markmap-node-rect" y="-10" x="-1" width="76" height="20" fill="#dfdfdf" rx="10" ry="10" stroke="#929292" stroke-width="1"></rect><circle class="markmap-node-circle" cx="74" stroke="#929292" r="4.5" style="display: none;"></circle><text class="markmap-node-text" x="10" dy="3" text-anchor="start" style="fill-opacity: 1;">级联运算符</text></g><g class="markmap-node" transform="translate(360.7880859375,62.5)"><rect class="markmap-node-rect" y="-10" x="-1" width="76" height="20" fill="#dfdfdf" rx="10" ry="10" stroke="#929292" stroke-width="1"></rect><circle class="markmap-node-circle" cx="74" stroke="#929292" r="4.5" style="display: none;"></circle><text class="markmap-node-text" x="10" dy="3" text-anchor="start" style="fill-opacity: 1;">条件表达式</text></g><g class="markmap-node" transform="translate(360.7880859375,37.5)"><rect class="markmap-node-rect" y="-10" x="-1" width="76" height="20" fill="#dfdfdf" rx="10" ry="10" stroke="#929292" stroke-width="1"></rect><circle class="markmap-node-circle" cx="74" stroke="#929292" r="4.5" style="display: none;"></circle><text class="markmap-node-text" x="10" dy="3" text-anchor="start" style="fill-opacity: 1;">位移操作符</text></g><g class="markmap-node" transform="translate(360.7880859375,12.5)"><rect class="markmap-node-rect" y="-10" x="-1" width="76" height="20" fill="#dfdfdf" rx="10" ry="10" stroke="#929292" stroke-width="1"></rect><circle class="markmap-node-circle" cx="74" stroke="#929292" r="4.5" style="display: none;"></circle><text class="markmap-node-text" x="10" dy="3" text-anchor="start" style="fill-opacity: 1;">逻辑操作符</text></g><g class="markmap-node" transform="translate(494.7880859375,12.5)"><rect class="markmap-node-rect" y="-10" x="-1" width="96" height="20" fill="#dfdfdf" rx="10" ry="10" stroke="#929292" stroke-width="1"></rect><circle class="markmap-node-circle" cx="94" stroke="#929292" r="4.5" style="display: none;"></circle><text class="markmap-node-text" x="10" dy="3" text-anchor="start" style="fill-opacity: 1;">复合赋值操作符</text></g><g class="markmap-node" transform="translate(494.7880859375,-12.5)"><rect class="markmap-node-rect" y="-10" x="-1" width="75.7412109375" height="20" fill="#dfdfdf" rx="10" ry="10" stroke="#929292" stroke-width="1"></rect><circle class="markmap-node-circle" cx="73.7412109375" stroke="#929292" r="4.5" style="display: none;"></circle><text class="markmap-node-text" x="10" dy="3" text-anchor="start" style="fill-opacity: 1;">??= 操作符</text></g><g class="markmap-node" transform="translate(494.7880859375,-37.5)"><rect class="markmap-node-rect" y="-10" x="-1" width="64.6181640625" height="20" fill="#dfdfdf" rx="10" ry="10" stroke="#929292" stroke-width="1"></rect><circle class="markmap-node-circle" cx="62.6181640625" stroke="#929292" r="4.5" style="display: none;"></circle><text class="markmap-node-text" x="10" dy="3" text-anchor="start" style="fill-opacity: 1;">= 操作符</text></g><g class="markmap-node" transform="translate(360.7880859375,-12.5)"><rect class="markmap-node-rect" y="-10" x="-1" width="76" height="20" fill="#dfdfdf" rx="10" ry="10" stroke="#929292" stroke-width="1"></rect><circle class="markmap-node-circle" cx="74" stroke="#929292" r="4.5"></circle><text class="markmap-node-text" x="10" dy="3" text-anchor="start" style="fill-opacity: 1;">赋值操作符</text></g><g class="markmap-node" transform="translate(360.7880859375,-42.5)"><rect class="markmap-node-rect" y="-10" x="-1" width="96" height="20" fill="#dfdfdf" rx="10" ry="10" stroke="#929292" stroke-width="1"></rect><circle class="markmap-node-circle" cx="94" stroke="#929292" r="4.5" style="display: none;"></circle><text class="markmap-node-text" x="10" dy="3" text-anchor="start" style="fill-opacity: 1;">类型判定运算符</text></g><g class="markmap-node" transform="translate(360.7880859375,-67.5)"><rect class="markmap-node-rect" y="-10" x="-1" width="106" height="20" fill="#dfdfdf" rx="10" ry="10" stroke="#929292" stroke-width="1"></rect><circle class="markmap-node-circle" cx="104" stroke="#929292" r="4.5" style="display: none;"></circle><text class="markmap-node-text" x="10" dy="3" text-anchor="start" style="fill-opacity: 1;">相等相关的操作符</text></g><g class="markmap-node" transform="translate(360.7880859375,-92.5)"><rect class="markmap-node-rect" y="-10" x="-1" width="76" height="20" fill="#dfdfdf" rx="10" ry="10" stroke="#929292" stroke-width="1"></rect><circle class="markmap-node-circle" cx="74" stroke="#929292" r="4.5" style="display: none;"></circle><text class="markmap-node-text" x="10" dy="3" text-anchor="start" style="fill-opacity: 1;">算术运算符</text></g><g class="markmap-node" transform="translate(246.7880859375,10)"><rect class="markmap-node-rect" y="-10" x="-1" width="56" height="20" fill="#dfdfdf" rx="10" ry="10" stroke="#929292" stroke-width="1"></rect><circle class="markmap-node-circle" cx="54" stroke="#929292" r="4.5"></circle><text class="markmap-node-text" x="10" dy="3" text-anchor="start" style="fill-opacity: 1;">运算符</text></g><g class="markmap-node" transform="translate(509.7626953125,-76.25)"><rect class="markmap-node-rect" y="-10" x="-1" width="66" height="20" fill="#dfdfdf" rx="10" ry="10" stroke="#929292" stroke-width="1"></rect><circle class="markmap-node-circle" cx="64" stroke="#929292" r="4.5" style="display: none;"></circle><text class="markmap-node-text" x="10" dy="3" text-anchor="start" style="fill-opacity: 1;">词法闭包</text></g><g class="markmap-node" transform="translate(633.7626953125,-88.75)"><rect class="markmap-node-rect" y="-10" x="-1" width="86" height="20" fill="#dfdfdf" rx="10" ry="10" stroke="#929292" stroke-width="1"></rect><circle class="markmap-node-circle" cx="84" stroke="#929292" r="4.5" style="display: none;"></circle><text class="markmap-node-text" x="10" dy="3" text-anchor="start" style="fill-opacity: 1;">位置可选参数</text></g><g class="markmap-node" transform="translate(633.7626953125,-113.75)"><rect class="markmap-node-rect" y="-10" x="-1" width="86" height="20" fill="#dfdfdf" rx="10" ry="10" stroke="#929292" stroke-width="1"></rect><circle class="markmap-node-circle" cx="84" stroke="#929292" r="4.5" style="display: none;"></circle><text class="markmap-node-text" x="10" dy="3" text-anchor="start" style="fill-opacity: 1;">命名可选参数</text></g><g class="markmap-node" transform="translate(509.7626953125,-101.25)"><rect class="markmap-node-rect" y="-10" x="-1" width="66" height="20" fill="#dfdfdf" rx="10" ry="10" stroke="#929292" stroke-width="1"></rect><circle class="markmap-node-circle" cx="64" stroke="#929292" r="4.5"></circle><text class="markmap-node-text" x="10" dy="3" text-anchor="start" style="fill-opacity: 1;">函数参数</text></g><g class="markmap-node" transform="translate(633.7626953125,-143.75)"><rect class="markmap-node-rect" y="-10" x="-1" width="66" height="20" fill="#dfdfdf" rx="10" ry="10" stroke="#929292" stroke-width="1"></rect><circle class="markmap-node-circle" cx="64" stroke="#929292" r="4.5" style="display: none;"></circle><text class="markmap-node-text" x="10" dy="3" text-anchor="start" style="fill-opacity: 1;">箭头函数</text></g><g class="markmap-node" transform="translate(633.7626953125,-168.75)"><rect class="markmap-node-rect" y="-10" x="-1" width="66" height="20" fill="#dfdfdf" rx="10" ry="10" stroke="#929292" stroke-width="1"></rect><circle class="markmap-node-circle" cx="64" stroke="#929292" r="4.5" style="display: none;"></circle><text class="markmap-node-text" x="10" dy="3" text-anchor="start" style="fill-opacity: 1;">匿名函数</text></g><g class="markmap-node" transform="translate(633.7626953125,-193.75)"><rect class="markmap-node-rect" y="-10" x="-1" width="66" height="20" fill="#dfdfdf" rx="10" ry="10" stroke="#929292" stroke-width="1"></rect><circle class="markmap-node-circle" cx="64" stroke="#929292" r="4.5" style="display: none;"></circle><text class="markmap-node-text" x="10" dy="3" text-anchor="start" style="fill-opacity: 1;">命名函数</text></g><g class="markmap-node" transform="translate(509.7626953125,-168.75)"><rect class="markmap-node-rect" y="-10" x="-1" width="66" height="20" fill="#dfdfdf" rx="10" ry="10" stroke="#929292" stroke-width="1"></rect><circle class="markmap-node-circle" cx="64" stroke="#929292" r="4.5"></circle><text class="markmap-node-text" x="10" dy="3" text-anchor="start" style="fill-opacity: 1;">函数定义</text></g><g class="markmap-node" transform="translate(246.7880859375,-122.5)"><rect class="markmap-node-rect" y="-10" x="-1" width="204.974609375" height="20" fill="#dfdfdf" rx="10" ry="10" stroke="#929292" stroke-width="1"></rect><circle class="markmap-node-circle" cx="202.974609375" stroke="#929292" r="4.5"></circle><text class="markmap-node-text" x="10" dy="3" text-anchor="start" style="fill-opacity: 1;">[函数](https://api.dartlang.org/stable/2.…</text></g><g class="markmap-node" transform="translate(390.7880859375,-198.75)"><rect class="markmap-node-rect" y="-10" x="-1" width="204.41796875" height="20" fill="#dfdfdf" rx="10" ry="10" stroke="#929292" stroke-width="1"></rect><circle class="markmap-node-circle" cx="202.41796875" stroke="#929292" r="4.5" style="display: none;"></circle><text class="markmap-node-text" x="10" dy="3" text-anchor="start" style="fill-opacity: 1;">[Symbols](https://api.dartlang.org/stab…</text></g><g class="markmap-node" transform="translate(390.7880859375,-223.75)"><rect class="markmap-node-rect" y="-10" x="-1" width="253.275390625" height="20" fill="#dfdfdf" rx="10" ry="10" stroke="#929292" stroke-width="1"></rect><circle class="markmap-node-circle" cx="251.275390625" stroke="#929292" r="4.5" style="display: none;"></circle><text class="markmap-node-text" x="10" dy="3" text-anchor="start" style="fill-opacity: 1;">[Runes（UTF-32字符集的字符）](https://api.dartl…</text></g><g class="markmap-node" transform="translate(390.7880859375,-248.75)"><rect class="markmap-node-rect" y="-10" x="-1" width="224.96484375" height="20" fill="#dfdfdf" rx="10" ry="10" stroke="#929292" stroke-width="1"></rect><circle class="markmap-node-circle" cx="222.96484375" stroke="#929292" r="4.5" style="display: none;"></circle><text class="markmap-node-text" x="10" dy="3" text-anchor="start" style="fill-opacity: 1;">[映射（Maps）](https://api.dartlang.org/sta…</text></g><g class="markmap-node" transform="translate(390.7880859375,-273.75)"><rect class="markmap-node-rect" y="-10" x="-1" width="221.0830078125" height="20" fill="#dfdfdf" rx="10" ry="10" stroke="#929292" stroke-width="1"></rect><circle class="markmap-node-circle" cx="219.0830078125" stroke="#929292" r="4.5" style="display: none;"></circle><text class="markmap-node-text" x="10" dy="3" text-anchor="start" style="fill-opacity: 1;">[集合（Set）](https://api.dartlang.org/stab…</text></g><g class="markmap-node" transform="translate(390.7880859375,-298.75)"><rect class="markmap-node-rect" y="-10" x="-1" width="215.51171875" height="20" fill="#dfdfdf" rx="10" ry="10" stroke="#929292" stroke-width="1"></rect><circle class="markmap-node-circle" cx="213.51171875" stroke="#929292" r="4.5" style="display: none;"></circle><text class="markmap-node-text" x="10" dy="3" text-anchor="start" style="fill-opacity: 1;">[列表（Lists）](https://api.dartlang.org/st…</text></g><g class="markmap-node" transform="translate(390.7880859375,-323.75)"><rect class="markmap-node-rect" y="-10" x="-1" width="223.8564453125" height="20" fill="#dfdfdf" rx="10" ry="10" stroke="#929292" stroke-width="1"></rect><circle class="markmap-node-circle" cx="221.8564453125" stroke="#929292" r="4.5" style="display: none;"></circle><text class="markmap-node-text" x="10" dy="3" text-anchor="start" style="fill-opacity: 1;">[布尔值（bool）](https://api.dartlang.org/st…</text></g><g class="markmap-node" transform="translate(390.7880859375,-348.75)"><rect class="markmap-node-rect" y="-10" x="-1" width="223.294921875" height="20" fill="#dfdfdf" rx="10" ry="10" stroke="#929292" stroke-width="1"></rect><circle class="markmap-node-circle" cx="221.294921875" stroke="#929292" r="4.5" style="display: none;"></circle><text class="markmap-node-text" x="10" dy="3" text-anchor="start" style="fill-opacity: 1;">[字符串（String）](https://api.dartlang.org/…</text></g><g class="markmap-node" transform="translate(674.314453125,-361.25)"><rect class="markmap-node-rect" y="-10" x="-1" width="96.029296875" height="20" fill="#dfdfdf" rx="10" ry="10" stroke="#929292" stroke-width="1"></rect><circle class="markmap-node-circle" cx="94.029296875" stroke="#929292" r="4.5" style="display: none;"></circle><text class="markmap-node-text" x="10" dy="3" text-anchor="start" style="fill-opacity: 1;">double数值类型</text></g><g class="markmap-node" transform="translate(674.314453125,-386.25)"><rect class="markmap-node-rect" y="-10" x="-1" width="76.5615234375" height="20" fill="#dfdfdf" rx="10" ry="10" stroke="#929292" stroke-width="1"></rect><circle class="markmap-node-circle" cx="74.5615234375" stroke="#929292" r="4.5" style="display: none;"></circle><text class="markmap-node-text" x="10" dy="3" text-anchor="start" style="fill-opacity: 1;">int数值类型</text></g><g class="markmap-node" transform="translate(390.7880859375,-373.75)"><rect class="markmap-node-rect" y="-10" x="-1" width="225.5263671875" height="20" fill="#dfdfdf" rx="10" ry="10" stroke="#929292" stroke-width="1"></rect><circle class="markmap-node-circle" cx="223.5263671875" stroke="#929292" r="4.5"></circle><text class="markmap-node-text" x="10" dy="3" text-anchor="start" style="fill-opacity: 1;">[数值（num）](https://api.dartlang.org/stab…</text></g><g class="markmap-node" transform="translate(246.7880859375,-286.25)"><rect class="markmap-node-rect" y="-10" x="-1" width="86" height="20" fill="#dfdfdf" rx="10" ry="10" stroke="#929292" stroke-width="1"></rect><circle class="markmap-node-circle" cx="84" stroke="#929292" r="4.5"></circle><text class="markmap-node-text" x="10" dy="3" text-anchor="start" style="fill-opacity: 1;">内置数据类型</text></g><g class="markmap-node" transform="translate(484.7880859375,-403.75)"><rect class="markmap-node-rect" y="-10" x="-1" width="66" height="20" fill="#dfdfdf" rx="10" ry="10" stroke="#929292" stroke-width="1"></rect><circle class="markmap-node-circle" cx="64" stroke="#929292" r="4.5" style="display: none;"></circle><text class="markmap-node-text" x="10" dy="3" text-anchor="start" style="fill-opacity: 1;">枚举常量</text></g><g class="markmap-node" transform="translate(484.7880859375,-428.75)"><rect class="markmap-node-rect" y="-10" x="-1" width="149.9013671875" height="20" fill="#dfdfdf" rx="10" ry="10" stroke="#929292" stroke-width="1"></rect><circle class="markmap-node-circle" cx="147.9013671875" stroke="#929292" r="4.5" style="display: none;"></circle><text class="markmap-node-text" x="10" dy="3" text-anchor="start" style="fill-opacity: 1;">使用const关键字来定义常量</text></g><g class="markmap-node" transform="translate(484.7880859375,-453.75)"><rect class="markmap-node-rect" y="-10" x="-1" width="144.3447265625" height="20" fill="#dfdfdf" rx="10" ry="10" stroke="#929292" stroke-width="1"></rect><circle class="markmap-node-circle" cx="142.3447265625" stroke="#929292" r="4.5" style="display: none;"></circle><text class="markmap-node-text" x="10" dy="3" text-anchor="start" style="fill-opacity: 1;">使用final关键字来定义常量</text></g><g class="markmap-node" transform="translate(380.7880859375,-428.75)"><rect class="markmap-node-rect" y="-10" x="-1" width="46" height="20" fill="#dfdfdf" rx="10" ry="10" stroke="#929292" stroke-width="1"></rect><circle class="markmap-node-circle" cx="44" stroke="#929292" r="4.5"></circle><text class="markmap-node-text" x="10" dy="3" text-anchor="start" style="fill-opacity: 1;">常量</text></g><g class="markmap-node" transform="translate(484.7880859375,-483.75)"><rect class="markmap-node-rect" y="-10" x="-1" width="183.2509765625" height="20" fill="#dfdfdf" rx="10" ry="10" stroke="#929292" stroke-width="1"></rect><circle class="markmap-node-circle" cx="181.2509765625" stroke="#929292" r="4.5" style="display: none;"></circle><text class="markmap-node-text" x="10" dy="3" text-anchor="start" style="fill-opacity: 1;">使用 dynamic 或 Object 来定义变量</text></g><g class="markmap-node" transform="translate(484.7880859375,-508.75)"><rect class="markmap-node-rect" y="-10" x="-1" width="145.4482421875" height="20" fill="#dfdfdf" rx="10" ry="10" stroke="#929292" stroke-width="1"></rect><circle class="markmap-node-circle" cx="143.4482421875" stroke="#929292" r="4.5" style="display: none;"></circle><text class="markmap-node-text" x="10" dy="3" text-anchor="start" style="fill-opacity: 1;">使用关键字 var 来定义变量</text></g><g class="markmap-node" transform="translate(484.7880859375,-533.75)"><rect class="markmap-node-rect" y="-10" x="-1" width="259.84765625" height="20" fill="#dfdfdf" rx="10" ry="10" stroke="#929292" stroke-width="1"></rect><circle class="markmap-node-circle" cx="257.84765625" stroke="#929292" r="4.5" style="display: none;"></circle><text class="markmap-node-text" x="10" dy="3" text-anchor="start" style="fill-opacity: 1;">显式指定类型（&lt;font color=red face="宋体" size=3…</text></g><g class="markmap-node" transform="translate(380.7880859375,-508.75)"><rect class="markmap-node-rect" y="-10" x="-1" width="46" height="20" fill="#dfdfdf" rx="10" ry="10" stroke="#929292" stroke-width="1"></rect><circle class="markmap-node-circle" cx="44" stroke="#929292" r="4.5"></circle><text class="markmap-node-text" x="10" dy="3" text-anchor="start" style="fill-opacity: 1;">变量</text></g><g class="markmap-node" transform="translate(246.7880859375,-468.75)"><rect class="markmap-node-rect" y="-10" x="-1" width="76" height="20" fill="#dfdfdf" rx="10" ry="10" stroke="#929292" stroke-width="1"></rect><circle class="markmap-node-circle" cx="74" stroke="#929292" r="4.5"></circle><text class="markmap-node-text" x="10" dy="3" text-anchor="start" style="fill-opacity: 1;">变量与常量</text></g><g class="markmap-node" transform="translate(60,0)"><rect class="markmap-node-rect" y="-10" x="-1" width="128.7880859375" height="20" fill="#dfdfdf" rx="10" ry="10" stroke="#929292" stroke-width="1"></rect><circle class="markmap-node-circle" cx="126.7880859375" stroke="#929292" r="4.5"></circle><text class="markmap-node-text" x="10" dy="3" text-anchor="start" style="fill-opacity: 1;">title: Dart 语言基础语法</text></g><g class="markmap-node" transform="translate(0,0)"><rect class="markmap-node-rect" y="-10" x="-1" width="2" height="20" fill="#dfdfdf" rx="10" ry="10" stroke="#929292" stroke-width="1"></rect><circle class="markmap-node-circle" cx="0" stroke="#929292" r="4.5"></circle><text class="markmap-node-text" x="10" dy="3" text-anchor="start" style="fill-opacity: 1;"></text></g></g>
</svg>